<?xml version="1.0" encoding="iso-8859-1"?>
<!-- Generator: Adobe Illustrator 18.0.0, SVG Export Plug-In . SVG Version: 6.00 Build 0)  -->
<!DOCTYPE svg PUBLIC "-//W3C//DTD SVG 1.1//EN" "http://www.w3.org/Graphics/SVG/1.1/DTD/svg11.dtd">
<svg xmlns="http://www.w3.org/2000/svg" xmlns:xlink="http://www.w3.org/1999/xlink" version="1.1" id="Capa_1" x="0px" y="0px" viewBox="0 0 479.298 479.298" style="enable-background:new 0 0 479.298 479.298;" xml:space="preserve" width="512px" height="512px">
<g>
	<path d="M450.048,52.671c-39-39-102.458-39-141.459,0c-18.893,18.893-29.297,44.012-29.297,70.73s10.404,51.837,29.297,70.729   c9.697,9.698,21.037,17.152,33.39,22.117c-4.341,6.043-8.776,10.443-12.119,12.907c-14.429,10.641-27.214,23.147-37.955,36.986   c-1.249-7.48-3.359-14.908-6.354-22.165c-12.59-30.502-38.181-52.394-70.213-60.062l-11.639-2.786   c-0.225-0.96-0.45-1.92-0.675-2.893c-13.006-56.303-60.25-98.86-117.562-105.898c-5.477-0.672-10.472,3.225-11.144,8.707   c-0.673,5.481,3.225,10.471,8.707,11.144c48.999,6.018,89.392,42.406,100.513,90.549c5.108,22.112,10.265,41.067,15.328,56.339   c1.392,4.198,5.298,6.856,9.491,6.856c1.043,0,2.104-0.165,3.148-0.511c5.242-1.738,8.083-7.397,6.345-12.639   c-2.878-8.681-5.798-18.653-8.731-29.792l1.563,0.374c25.718,6.157,46.269,23.741,56.382,48.243   c9.891,23.964,7.828,50.245-5.658,72.099c-0.413,0.669-0.834,1.332-1.265,1.99c-3.027,4.62-1.737,10.818,2.883,13.845   c1.69,1.108,3.591,1.637,5.472,1.637c3.259,0,6.454-1.591,8.373-4.52c0.529-0.807,1.046-1.621,1.556-2.445   c5.487-8.891,9.456-18.365,11.904-28.129c11.599-23.55,29.364-44.58,51.401-60.831c7.184-5.296,14.529-13.712,20.447-23.279   c5.607,0.963,11.336,1.455,17.141,1.455c6.752,0,13.401-0.667,19.874-1.965c-8.327,29.997-15.308,56.249-20.789,78.196   c-12.799,51.234-46.656,116.847-76.659,132.862c-6.238,3.33-11.664,4.155-16.573,2.514   c-144.404-66.195-173.487-134.72-179.289-161.127c-1.099-5.002-5.771-8.304-10.747-7.807   c-24.202-6.111-45.091-21.067-58.928-42.228c-14.337-21.925-19.392-48.205-14.231-73.998c1.083-5.416-2.428-10.684-7.844-11.768   c-5.414-1.081-10.685,2.428-11.768,7.844c-6.195,30.967-0.121,62.527,17.104,88.868c16.182,24.745,40.43,42.424,68.59,50.101   c4.775,16.553,15.598,40.011,39.85,67.018c33.506,37.312,83.759,71.454,149.365,101.479c0.254,0.117,0.513,0.222,0.776,0.316   c3.978,1.432,8.051,2.146,12.204,2.146c6.783,0,13.778-1.908,20.909-5.714c22.075-11.783,40.882-39.672,52.772-60.994   c14.647-26.265,26.993-57.124,33.873-84.665c6.212-24.873,14.373-55.349,24.262-90.616c10.259-4.855,19.715-11.495,27.979-19.759   C489.048,155.13,489.048,91.672,450.048,52.671z M379.319,203.427c-21.376,0-41.472-8.324-56.587-23.439   c-15.115-15.115-23.439-35.211-23.439-56.587s8.324-41.473,23.439-56.587c15.601-15.601,36.094-23.402,56.587-23.402   s40.986,7.801,56.587,23.401c31.202,31.203,31.203,81.973,0,113.175C420.791,195.103,400.694,203.427,379.319,203.427z" fill="#FBFBFB"/>
	<path d="M360.79,104.872c-10.216,10.216-10.216,26.84,0,37.058c5.108,5.108,11.818,7.662,18.528,7.662   c6.71,0,13.42-2.554,18.529-7.662v0c10.216-10.217,10.216-26.841,0-37.057C387.632,94.656,371.008,94.656,360.79,104.872z    M383.705,127.787c-2.419,2.418-6.354,2.419-8.772,0c-2.419-2.419-2.419-6.354,0-8.773c1.209-1.209,2.798-1.814,4.387-1.814   c1.588,0,3.177,0.604,4.386,1.814C386.123,121.433,386.123,125.368,383.705,127.787z" fill="#FBFBFB"/>
	<path d="M430.439,72.28c-28.188-28.188-74.053-28.188-102.241,0c-28.188,28.188-28.188,74.053,0,102.241   c14.094,14.094,32.607,21.141,51.121,21.141s37.026-7.047,51.121-21.141C458.627,146.333,458.627,100.468,430.439,72.28z    M416.297,160.379c-20.39,20.391-53.566,20.391-73.956,0c-20.39-20.39-20.39-53.566,0-73.956   c10.195-10.195,23.586-15.292,36.978-15.292s26.783,5.097,36.978,15.292C436.687,106.812,436.687,139.989,416.297,160.379z" fill="#FBFBFB"/>
</g>
<g>
</g>
<g>
</g>
<g>
</g>
<g>
</g>
<g>
</g>
<g>
</g>
<g>
</g>
<g>
</g>
<g>
</g>
<g>
</g>
<g>
</g>
<g>
</g>
<g>
</g>
<g>
</g>
<g>
</g>
</svg>
