<?xml version="1.0" encoding="iso-8859-1"?>
<!-- Generator: Adobe Illustrator 18.0.0, SVG Export Plug-In . SVG Version: 6.00 Build 0)  -->
<!DOCTYPE svg PUBLIC "-//W3C//DTD SVG 1.1//EN" "http://www.w3.org/Graphics/SVG/1.1/DTD/svg11.dtd">
<svg xmlns="http://www.w3.org/2000/svg" xmlns:xlink="http://www.w3.org/1999/xlink" version="1.1" id="Capa_1" x="0px" y="0px" viewBox="0 0 475.87 475.87" style="enable-background:new 0 0 475.87 475.87;" xml:space="preserve" width="512px" height="512px">
<path d="M465.87,226.507h-7.637v-28.495c0-10.203-8.301-18.503-18.503-18.503h-17.513c-2.612-7.054-9.388-12.104-17.339-12.104  h-17.845c-10.202,0-18.503,8.3-18.503,18.503v40.6H107.335v-40.6c0-10.203-8.301-18.503-18.503-18.503H70.986  c-7.951,0-14.726,5.051-17.339,12.104H36.136c-10.202,0-18.503,8.301-18.503,18.503v28.495H10c-5.522,0-10,4.477-10,10  s4.478,10,10,10h7.633v31.351c0,10.203,8.301,18.503,18.503,18.503h17.512c2.612,7.054,9.388,12.105,17.339,12.105h17.846  c10.202,0,18.503-8.3,18.503-18.503v-43.456h261.196v43.456c0,10.203,8.301,18.503,18.503,18.503h17.845  c7.951,0,14.727-5.051,17.339-12.105h17.513c10.202,0,18.503-8.3,18.503-18.503v-31.351h7.637c5.522,0,10-4.477,10-10  S471.393,226.507,465.87,226.507z M37.633,199.509h14.851v76.852H37.633V199.509z M72.483,288.466v-10.608v-79.846v-10.608h14.852  v101.061H72.483z M403.382,288.466h-14.851V187.404h14.851v10.607v79.846V288.466z M423.382,276.361v-76.852h14.852v76.852H423.382z  " fill="#FBFBFB"/>
<g>
</g>
<g>
</g>
<g>
</g>
<g>
</g>
<g>
</g>
<g>
</g>
<g>
</g>
<g>
</g>
<g>
</g>
<g>
</g>
<g>
</g>
<g>
</g>
<g>
</g>
<g>
</g>
<g>
</g>
</svg>
