<?xml version="1.0" encoding="iso-8859-1"?>
<!-- Generator: Adobe Illustrator 18.0.0, SVG Export Plug-In . SVG Version: 6.00 Build 0)  -->
<!DOCTYPE svg PUBLIC "-//W3C//DTD SVG 1.1//EN" "http://www.w3.org/Graphics/SVG/1.1/DTD/svg11.dtd">
<svg xmlns="http://www.w3.org/2000/svg" xmlns:xlink="http://www.w3.org/1999/xlink" version="1.1" id="Capa_1" x="0px" y="0px" viewBox="0 0 403.326 403.326" style="enable-background:new 0 0 403.326 403.326;" xml:space="preserve" width="512px" height="512px">
<g>
	<path d="M368.158,53.06c-22.715-22.714-52.915-35.224-85.038-35.224c-30.464,0-59.197,11.25-81.458,31.786   C154.547,6.202,80.881,7.348,35.167,53.061c-46.89,46.89-46.89,123.185,0,170.075L194.592,382.56   c1.876,1.875,4.419,2.929,7.071,2.929s5.195-1.054,7.071-2.929l159.424-159.424C415.048,176.246,415.048,99.951,368.158,53.06z    M354.016,208.994L201.663,361.347L49.31,208.993c-18.938-18.937-29.366-44.114-29.366-70.895   c0.001-26.781,10.43-51.959,29.367-70.896c19.546-19.546,45.221-29.319,70.896-29.319c24.097,0,48.194,8.61,67.225,25.829   l-28.962,28.962c-3.905,3.905-3.905,10.237,0,14.142c1.953,1.953,4.512,2.929,7.071,2.929s5.118-0.976,7.071-2.929l39.614-39.615   c18.937-18.937,44.114-29.366,70.895-29.366c26.781,0,51.959,10.429,70.896,29.366   C393.108,106.295,393.108,169.902,354.016,208.994z" fill="#FBFBFB"/>
	<path d="M312.596,54.129c-9.7-3.561-19.901-5.366-30.32-5.366c-5.522,0-10,4.477-10,10s4.478,10,10,10   c8.06,0,15.942,1.393,23.43,4.141c1.137,0.417,2.3,0.615,3.444,0.615c4.074,0,7.903-2.51,9.389-6.557   C320.442,61.777,317.781,56.032,312.596,54.129z" fill="#FBFBFB"/>
	<path d="M349.446,79.908c-3.569-4.214-9.881-4.736-14.094-1.166c-4.214,3.57-4.736,9.88-1.166,14.094   c10.376,12.247,16.09,27.847,16.09,43.927c0,5.523,4.478,10,10,10s10-4.477,10-10C370.276,115.955,362.878,95.764,349.446,79.908z" fill="#FBFBFB"/>
	<path d="M185.299,298.843c-3.906-3.905-10.236-3.905-14.143,0c-3.905,3.905-3.905,10.237,0,14.143l13.998,13.998   c1.953,1.953,4.512,2.929,7.071,2.929s5.118-0.976,7.071-2.929c3.905-3.905,3.905-10.237,0-14.143L185.299,298.843z" fill="#FBFBFB"/>
	<path d="M109.547,223.091c-3.906-3.905-10.236-3.905-14.143,0c-3.905,3.905-3.905,10.237,0,14.143l52.751,52.751   c1.953,1.953,4.512,2.929,7.071,2.929s5.118-0.976,7.071-2.929c3.905-3.905,3.905-10.237,0-14.143L109.547,223.091z" fill="#FBFBFB"/>
</g>
<g>
</g>
<g>
</g>
<g>
</g>
<g>
</g>
<g>
</g>
<g>
</g>
<g>
</g>
<g>
</g>
<g>
</g>
<g>
</g>
<g>
</g>
<g>
</g>
<g>
</g>
<g>
</g>
<g>
</g>
</svg>
